<?xml version="1.0" encoding="utf-8"?>
<!-- Generator: Adobe Illustrator 26.1.0, SVG Export Plug-In . SVG Version: 6.00 Build 0)  -->
<svg version="1.1" xmlns="http://www.w3.org/2000/svg" xmlns:xlink="http://www.w3.org/1999/xlink" x="0px" y="0px"
	 viewBox="0 0 318 83" style="enable-background:new 0 0 318 83;" xml:space="preserve">
<style type="text/css">
	.st0{fill:#752400;}
	.st1{fill:#EDA900;}
	.st2{fill:url(#);}
	.st3{fill:url(#SVGID_1_);}
	.st4{fill:#FCC51D;}
	.st5{fill:#FFDA32;}
	.st6{fill:none;stroke:#003743;stroke-width:17;stroke-miterlimit:10;}
	.st7{fill:#003743;}
	.st8{fill:none;stroke:#003743;stroke-width:20;stroke-linecap:round;stroke-linejoin:round;stroke-miterlimit:10;}
	.st9{fill:none;stroke:#003743;stroke-width:19;stroke-linecap:round;stroke-linejoin:round;stroke-miterlimit:10;}
	.st10{fill:none;stroke:#003743;stroke-width:21;stroke-linecap:round;stroke-linejoin:round;stroke-miterlimit:10;}
	.st11{fill:#002434;}
	.st12{fill:url(#SVGID_00000155124317205995126220000016479988136152841656_);}
	.st13{fill:#F20091;}
	.st14{fill:none;stroke:#E9992B;stroke-width:1.4883;stroke-miterlimit:10;}
	.st15{fill:#FFD700;}
	.st16{fill:none;stroke:#A2B3B6;stroke-miterlimit:10;}
	.st17{fill:#A2B3B6;}
	.st18{fill:#FF9300;}
	.st19{fill:#F2D291;}
	.st20{fill:#E1600E;}
	.st21{fill:#009DB5;}
	.st22{fill:#003643;}
	.st23{fill:none;stroke:#FCC51D;stroke-width:2.931;stroke-linecap:round;stroke-linejoin:round;stroke-miterlimit:10;}
	.st24{fill:#FFFFFF;}
	.st25{fill:#2E2C2F;}
	.st26{fill:#DE4335;}
	.st27{fill:#EFB004;}
	.st28{fill:#4280E8;}
	.st29{fill:#349C53;}
	.st30{fill:none;stroke:#F2D291;stroke-linecap:round;stroke-linejoin:round;stroke-miterlimit:10;stroke-dasharray:8,20;}
	.st31{fill:#FFC180;}
	.st32{fill:#E8902C;}
	.st33{fill:none;stroke:#F2D291;stroke-width:1.5;stroke-linecap:round;stroke-linejoin:round;stroke-miterlimit:10;}
	.st34{fill:#009C83;}
	.st35{fill:#E9992B;}
	.st36{fill:url(#SVGID_00000047775000710043280210000003967126865406269057_);}
	.st37{fill:#FFD000;}
	.st38{fill:none;stroke:#003743;stroke-width:4.3631;stroke-miterlimit:10;}
	.st39{fill:none;stroke:#003743;stroke-width:5.1331;stroke-linecap:round;stroke-linejoin:round;stroke-miterlimit:10;}
	.st40{fill:none;stroke:#003743;stroke-width:4.8764;stroke-linecap:round;stroke-linejoin:round;stroke-miterlimit:10;}
	.st41{fill:none;stroke:#003743;stroke-width:5.3897;stroke-linecap:round;stroke-linejoin:round;stroke-miterlimit:10;}
	.st42{fill:none;stroke:#003743;stroke-width:4.1065;stroke-linecap:round;stroke-linejoin:round;stroke-miterlimit:10;}
	.st43{fill:#FFBD1C;}
	.st44{fill:#E7982B;}
	.st45{fill:#FF16FF;}
	.st46{fill:none;stroke:#FF16FF;stroke-width:4;stroke-miterlimit:10;}
	.st47{display:none;}
	.st48{display:inline;}
	.st49{fill:#FF6DFF;}
	.st50{opacity:0.61;clip-path:url(#SVGID_00000146478053496265034240000010527010185878152107_);fill:#752400;}
	.st51{fill:#F0A81D;}
	.st52{fill:none;stroke:#752400;stroke-width:6.0764;stroke-linecap:round;stroke-linejoin:round;stroke-miterlimit:10;}
	.st53{fill:none;stroke:#D124FF;stroke-width:0.2509;stroke-miterlimit:10;}
	.st54{fill:none;stroke:#D124FF;stroke-width:0.1774;stroke-miterlimit:10;}
	.st55{fill:none;stroke:#D124FF;stroke-width:0.1255;stroke-miterlimit:10;}
	.st56{fill:none;stroke:#D124FF;stroke-width:0.433;stroke-miterlimit:10;}
	.st57{fill:none;stroke:#D124FF;stroke-width:0.1768;stroke-miterlimit:10;}
	.st58{filter:url(#Adobe_OpacityMaskFilter);}
	.st59{filter:url(#Adobe_OpacityMaskFilter_00000038392623711721450070000008441281665982758797_);}
	.st60{clip-path:url(#SVGID_00000039102039635399816560000014474106283335005098_);}
	.st61{clip-path:url(#SVGID_00000162338924001011921630000006069762083400206721_);}
	.st62{fill:none;stroke:#E9B32B;stroke-width:2.4797;stroke-miterlimit:10;}
	.st63{clip-path:url(#SVGID_00000079450787575204564610000017276693619337332398_);}
	.st64{fill:none;stroke:#003947;stroke-width:2.4797;stroke-miterlimit:10;}
	.st65{opacity:0.86;fill:#FFFFFF;}
	.st66{fill:#FFAF2C;stroke:#003643;stroke-width:4.2721;stroke-linecap:round;stroke-linejoin:round;stroke-miterlimit:10;}
	.st67{fill:none;stroke:#003643;stroke-width:8.307;stroke-miterlimit:10;}
	.st68{fill:none;stroke:#003643;stroke-width:7.1202;stroke-linecap:round;stroke-linejoin:round;stroke-miterlimit:10;}
	.st69{fill:none;stroke:#003643;stroke-width:3.5601;stroke-linecap:round;stroke-linejoin:round;stroke-miterlimit:10;}
	.st70{fill:none;stroke:#003643;stroke-width:6.4082;stroke-linecap:round;stroke-linejoin:round;stroke-miterlimit:10;}
	.st71{fill:#FFAF2C;stroke:#003643;stroke-width:3.7927;stroke-linecap:round;stroke-linejoin:round;stroke-miterlimit:10;}
	.st72{fill:none;stroke:#003643;stroke-width:7.3747;stroke-miterlimit:10;}
	.st73{fill:none;stroke:#003643;stroke-width:6.3212;stroke-linecap:round;stroke-linejoin:round;stroke-miterlimit:10;}
	.st74{fill:none;stroke:#003643;stroke-width:3.1606;stroke-linecap:round;stroke-linejoin:round;stroke-miterlimit:10;}
	.st75{fill:none;stroke:#003643;stroke-width:5.6891;stroke-linecap:round;stroke-linejoin:round;stroke-miterlimit:10;}
	.st76{clip-path:url(#SVGID_00000016796819038561295470000008479392161473373849_);}
	.st77{fill:none;stroke:#5C5EC2;stroke-width:5.9855;stroke-miterlimit:10;}
	.st78{fill:none;stroke:#5C5EC2;stroke-width:4.7884;stroke-miterlimit:10;}
	.st79{fill:#5C5EC2;}
	.st80{clip-path:url(#SVGID_00000157289934837064621520000016359521709752809096_);}
	.st81{fill:none;stroke:#5C5EC2;stroke-width:6.6165;stroke-miterlimit:10;}
	.st82{fill:none;stroke:#5C5EC2;stroke-width:5.2932;stroke-miterlimit:10;}
	.st83{fill:#FFD194;stroke:#003643;stroke-width:6.61;stroke-miterlimit:10;}
	.st84{fill:#FFFFFF;stroke:#003643;stroke-width:3.9227;stroke-miterlimit:10;}
	.st85{fill:#E4BA87;}
	.st86{fill:#A45727;}
	.st87{fill:#E7EAE8;}
	.st88{opacity:0.51;fill:#FFFFFF;}
	.st89{fill:#D4CFCC;}
	.st90{fill:none;stroke:#003643;stroke-width:9.9758;stroke-linecap:round;stroke-linejoin:round;stroke-miterlimit:10;}
	.st91{fill:#FFAF2C;}
	.st92{fill:#FFD194;stroke:#003643;stroke-width:7.8307;stroke-miterlimit:10;}
	.st93{fill:#E9ECED;}
	.st94{fill:none;stroke:#FFFFFF;stroke-width:2.9927;stroke-linecap:round;stroke-linejoin:round;stroke-miterlimit:10;}
	.st95{fill:none;stroke:#E8902C;stroke-width:3.9903;stroke-linecap:round;stroke-linejoin:round;stroke-miterlimit:10;}
	.st96{filter:url(#Adobe_OpacityMaskFilter_00000098909595240270918240000011788390910690647200_);}
	.st97{clip-path:url(#SVGID_00000117656573879236864040000013730816762960383616_);}
	.st98{filter:url(#Adobe_OpacityMaskFilter_00000070076732796722619080000000819374534553355925_);}
	.st99{clip-path:url(#SVGID_00000133493832675255828980000008804513721695737505_);enable-background:new    ;}
	.st100{clip-path:url(#SVGID_00000083051641446423049130000004513366873110566847_);enable-background:new    ;}
	.st101{clip-path:url(#SVGID_00000177475115032629226950000008014634719272349870_);enable-background:new    ;}
	.st102{clip-path:url(#SVGID_00000139972218773402298400000000364034877450713785_);}
	.st103{clip-path:url(#SVGID_00000013156695533584484210000005138386883593218689_);}
	.st104{clip-path:url(#SVGID_00000060009342648037492340000000644088056456119690_);enable-background:new    ;}
	.st105{fill:none;stroke:#752400;stroke-width:5.2755;stroke-linecap:round;stroke-linejoin:round;stroke-miterlimit:10;}
	.st106{fill:none;stroke:#C4BFCC;stroke-width:0.5;stroke-miterlimit:10;}
	.st107{fill:none;stroke:#752400;stroke-miterlimit:10;}
	.st108{fill:none;stroke:#FFFFFF;stroke-width:2;stroke-miterlimit:10;}
	.st109{opacity:0.67;}
</style>
<g id="Capa_1">
	<g>
		<g>
			<path class="st0" d="M100.21,25.03h-8.88l-9.67,30.61h7.7l1-3.49l0.01-0.03l1.96-8.19h-0.01l0.18-0.72l3.13-12.47l3.31,13.19
				h-4.72l-1.45,6.06h7.53l1.61,5.66h8.1L100.21,25.03z"/>
			<path class="st0" d="M137.95,30.69c-0.44-1.39-1.16-2.53-2.18-3.4c-1.01-0.87-2.42-1.51-4.22-1.93c-1.8-0.43-4.07-0.63-6.8-0.63
				c-0.55,0-1.37,0.01-2.45,0.02c-1.09,0.01-2.42,0.05-3.98,0.1c-1.58,0.06-3.4,0.13-5.49,0.22v30.56h7.4v-24.9
				c0.7-0.03,1.28-0.06,1.76-0.09c0.48-0.03,0.9-0.06,1.27-0.06c0.36-0.02,0.7-0.02,1.02-0.02h1.04c1.16,0,2.12,0.09,2.87,0.28
				c0.75,0.18,1.35,0.48,1.77,0.89c0.42,0.41,0.72,0.93,0.89,1.55c0.17,0.62,0.26,1.39,0.26,2.28c0,1.08-0.1,1.99-0.26,2.75
				c-0.17,0.75-0.51,1.36-0.98,1.83c-0.48,0.46-1.16,0.8-2.05,1c-0.89,0.21-2.03,0.31-3.46,0.31h-1.02c-0.31,0-0.61-0.01-0.92-0.02
				c-0.1-0.01-0.2-0.01-0.31-0.02v5.8c0.34,0.02,0.63,0.03,0.89,0.05c0.32,0.02,0.64,0.02,0.97,0.02h2.69
				c2.21,0,4.07-0.23,5.57-0.67c1.51-0.45,2.74-1.14,3.68-2.07c0.94-0.93,1.63-2.11,2.05-3.57c0.42-1.45,0.63-3.19,0.63-5.22
				C138.61,33.77,138.39,32.09,137.95,30.69z"/>
			<path class="st0" d="M143,55.64V25.17h7.36v30.48H143z"/>
			<path class="st0" d="M178.61,26.26l-1.39,5.66c-0.58-0.2-1.25-0.39-2-0.57c-0.75-0.17-1.54-0.32-2.35-0.44
				c-0.81-0.12-1.63-0.2-2.44-0.26c-0.81-0.06-1.6-0.09-2.35-0.09c-1.71,0-3.02,0.23-3.92,0.7c-0.9,0.46-1.35,1.19-1.35,2.18
				c0,0.52,0.15,0.98,0.44,1.37c0.29,0.39,0.75,0.75,1.39,1.07c0.64,0.32,1.46,0.64,2.48,0.96c1.02,0.32,2.23,0.67,3.66,1.04
				c1.54,0.38,2.88,0.83,4.03,1.37c1.15,0.54,2.1,1.16,2.87,1.87c0.77,0.71,1.35,1.54,1.74,2.48c0.39,0.94,0.59,2.04,0.59,3.29
				c0,1.97-0.52,3.64-1.57,5.01c-1.05,1.36-2.58,2.4-4.62,3.11s-4.53,1.07-7.49,1.07c-0.99,0-2-0.04-3.05-0.13
				c-1.05-0.09-2.1-0.21-3.16-0.37c-1.06-0.16-2.08-0.36-3.07-0.61c-0.99-0.25-1.92-0.53-2.79-0.85l1.39-5.62
				c0.87,0.29,1.77,0.55,2.7,0.78c0.93,0.23,1.87,0.43,2.83,0.59c0.96,0.16,1.91,0.28,2.85,0.37c0.94,0.09,1.84,0.13,2.68,0.13
				c1.31,0,2.37-0.11,3.2-0.33c0.83-0.22,1.44-0.54,1.83-0.98c0.39-0.44,0.59-0.97,0.59-1.61c0-0.55-0.2-1.02-0.59-1.39
				c-0.39-0.38-0.98-0.73-1.76-1.07c-0.78-0.33-1.76-0.67-2.94-1.02c-1.18-0.35-2.53-0.75-4.07-1.22c-1.31-0.44-2.45-0.93-3.42-1.48
				c-0.97-0.55-1.79-1.18-2.46-1.89c-0.67-0.71-1.17-1.53-1.5-2.46c-0.33-0.93-0.5-1.97-0.5-3.13c0-1.31,0.25-2.51,0.76-3.61
				c0.51-1.1,1.28-2.06,2.31-2.87c1.03-0.81,2.37-1.44,4.03-1.89c1.65-0.45,3.61-0.67,5.88-0.67c1.34,0,2.66,0.07,3.98,0.22
				c1.32,0.15,2.55,0.33,3.68,0.57C176.87,25.75,177.83,25.99,178.61,26.26z"/>
			<path class="st0" d="M191.63,49.42V31.44h14.5v-6.27h-21.86v30.48h22.64v-6.23H191.63z M205.04,42.64v-4.98h-11.53v4.98H205.04z"
				/>
			<path class="st0" d="M238.47,48.89c-0.09,0-0.2,0.01-0.35,0.02c-2.06,0.23-4.02-1.57-5.5-3.02c-0.69-0.67-1.4-1.46-2.16-2.4
				c1.31-0.44,2.45-1.04,3.42-1.83s1.72-1.79,2.24-3.02c0.52-1.23,0.78-2.71,0.78-4.42c0-1.69-0.25-3.13-0.74-4.33
				c-0.5-1.21-1.28-2.18-2.37-2.94c-1.08-0.75-2.48-1.31-4.18-1.67c-1.69-0.36-3.75-0.55-6.16-0.55c-1.02,0-2.13,0.02-3.33,0.04
				c-1.2,0.03-2.53,0.08-3.96,0.13c-1.44,0.06-3.02,0.14-4.73,0.26v30.48h7.4V30.66c0.58-0.03,1.07-0.06,1.48-0.09
				c0.4-0.03,0.78-0.06,1.11-0.06c0.33-0.02,0.66-0.02,1.01-0.02h1.2c1.45,0,2.59,0.16,3.42,0.47c0.82,0.32,1.41,0.82,1.76,1.5
				c0.35,0.68,0.52,1.59,0.52,2.72c0,0.93-0.12,1.7-0.36,2.33c-0.25,0.63-0.61,1.13-1.09,1.53c-0.48,0.39-1.09,0.67-1.85,0.85
				c-0.75,0.17-1.64,0.26-2.65,0.26h-1.24c-0.36,0-0.72-0.01-1.07-0.02c-0.11-0.01-0.22-0.01-0.33-0.02v5.44h1.45
				c0.3,0,0.54-0.02,0.71-0.05c1.04,1.54,2.06,2.89,3.03,4.05c0.97,1.16,1.92,2.15,2.85,2.98c0.93,0.82,1.84,1.5,2.72,2.02
				c2.27,1.35,4.61,1.76,7.03,1.39L238.47,48.89z"/>
			<path class="st0" d="M271.7,33.44l-1.05,4.27c-0.44-0.15-0.94-0.3-1.51-0.43c-0.57-0.13-1.16-0.24-1.78-0.33
				c-0.61-0.09-1.23-0.15-1.84-0.2c-0.61-0.04-1.21-0.07-1.78-0.07c-1.29,0-2.28,0.18-2.96,0.53c-0.68,0.35-1.02,0.9-1.02,1.64
				c0,0.39,0.11,0.74,0.33,1.04c0.22,0.3,0.57,0.56,1.05,0.81c0.48,0.24,1.11,0.48,1.87,0.72c0.77,0.24,1.69,0.5,2.76,0.79
				c1.16,0.28,2.18,0.63,3.04,1.04c0.87,0.41,1.59,0.88,2.17,1.41c0.58,0.54,1.02,1.16,1.31,1.87c0.3,0.71,0.44,1.54,0.44,2.48
				c0,1.49-0.39,2.75-1.18,3.78c-0.79,1.03-1.95,1.81-3.48,2.35c-1.53,0.54-3.42,0.81-5.66,0.81c-0.74,0-1.51-0.03-2.3-0.1
				c-0.79-0.07-1.58-0.16-2.38-0.28c-0.8-0.12-1.57-0.27-2.32-0.46c-0.75-0.19-1.45-0.4-2.1-0.64l1.05-4.24
				c0.66,0.22,1.34,0.42,2.04,0.59c0.7,0.18,1.41,0.32,2.14,0.44c0.72,0.12,1.44,0.21,2.15,0.28c0.71,0.07,1.39,0.1,2.02,0.1
				c0.99,0,1.79-0.08,2.42-0.25c0.62-0.16,1.08-0.41,1.38-0.74c0.3-0.33,0.44-0.73,0.44-1.22c0-0.42-0.15-0.77-0.44-1.05
				s-0.74-0.55-1.33-0.81c-0.59-0.25-1.33-0.51-2.22-0.77c-0.89-0.26-1.91-0.57-3.07-0.92c-0.99-0.33-1.85-0.7-2.58-1.12
				c-0.73-0.42-1.35-0.89-1.86-1.43c-0.5-0.54-0.88-1.16-1.13-1.86c-0.25-0.7-0.38-1.49-0.38-2.37c0-0.99,0.19-1.9,0.58-2.73
				c0.38-0.83,0.96-1.56,1.74-2.17c0.78-0.61,1.79-1.09,3.04-1.43c1.25-0.34,2.73-0.51,4.44-0.51c1.01,0,2.01,0.05,3.01,0.16
				c1,0.11,1.92,0.25,2.78,0.43C270.38,33.06,271.11,33.24,271.7,33.44z"/>
			<path class="st0" d="M287.94,32.52h-6.71l-7.3,23.11h5.82l3.2-12.69l1.54-6.12l2.5,9.96h-3.17l-1.13,4.57h5.32l1.22,4.27h6.12
				L287.94,32.52z"/>
			<path class="st0" d="M315.06,33.44l-1.05,4.27c-0.44-0.15-0.94-0.3-1.51-0.43c-0.57-0.13-1.16-0.24-1.78-0.33
				c-0.61-0.09-1.23-0.15-1.84-0.2c-0.61-0.04-1.21-0.07-1.78-0.07c-1.29,0-2.28,0.18-2.96,0.53c-0.68,0.35-1.02,0.9-1.02,1.64
				c0,0.39,0.11,0.74,0.33,1.04c0.22,0.3,0.57,0.56,1.05,0.81c0.48,0.24,1.11,0.48,1.87,0.72c0.77,0.24,1.69,0.5,2.76,0.79
				c1.16,0.28,2.18,0.63,3.04,1.04c0.87,0.41,1.59,0.88,2.17,1.41c0.58,0.54,1.02,1.16,1.31,1.87c0.3,0.71,0.44,1.54,0.44,2.48
				c0,1.49-0.39,2.75-1.18,3.78c-0.79,1.03-1.95,1.81-3.48,2.35c-1.53,0.54-3.42,0.81-5.66,0.81c-0.74,0-1.51-0.03-2.3-0.1
				c-0.79-0.07-1.58-0.16-2.38-0.28c-0.8-0.12-1.57-0.27-2.32-0.46c-0.75-0.19-1.45-0.4-2.1-0.64l1.05-4.24
				c0.66,0.22,1.34,0.42,2.04,0.59c0.7,0.18,1.41,0.32,2.14,0.44c0.72,0.12,1.44,0.21,2.15,0.28c0.71,0.07,1.39,0.1,2.02,0.1
				c0.99,0,1.79-0.08,2.42-0.25c0.62-0.16,1.08-0.41,1.38-0.74c0.3-0.33,0.44-0.73,0.44-1.22c0-0.42-0.15-0.77-0.44-1.05
				s-0.74-0.55-1.33-0.81c-0.59-0.25-1.33-0.51-2.22-0.77c-0.89-0.26-1.91-0.57-3.07-0.92c-0.99-0.33-1.85-0.7-2.58-1.12
				c-0.73-0.42-1.35-0.89-1.86-1.43c-0.5-0.54-0.88-1.16-1.13-1.86c-0.25-0.7-0.38-1.49-0.38-2.37c0-0.99,0.19-1.9,0.58-2.73
				c0.38-0.83,0.96-1.56,1.74-2.17c0.78-0.61,1.79-1.09,3.04-1.43c1.25-0.34,2.73-0.51,4.44-0.51c1.01,0,2.01,0.05,3.01,0.16
				c1,0.11,1.92,0.25,2.78,0.43C313.75,33.06,314.47,33.24,315.06,33.44z"/>
		</g>
		<g>
			<path class="st15" d="M32.06,9.94L8.67,23.45c-1.22,0.71-1.97,2.01-1.97,3.42v27.01c0,1.41,0.75,2.71,1.97,3.42l18.12,10.46
				c4.49,2.59,10.01,2.59,14.5,0L59.4,57.3c1.22-0.71,1.97-2.01,1.97-3.42V26.87c0-1.41-0.75-2.71-1.97-3.42L36.01,9.94
				C34.78,9.24,33.28,9.24,32.06,9.94z"/>
			<path class="st51" d="M31.3,70.26c4.56-0.16,5.46-6.47,1.64-7.42c1.26-0.84-0.3-2,0.77-2.55c3.55-1.8,2.97-6.51,0-7.37
				c0.83,0.36-0.23-3.33,0.67-3.5c2.54-0.48,2.8-6.1-0.67-7.11c1.61,0.37,2.98-2.05,4.55-2.56c1.57-0.52,3.02-1.31,4.47-2.1
				c6.17-3.38,12.34-6.75,18.51-10.13l0.6,28.87l-27.81,16.1L31.3,70.26z"/>
			<path class="st0" d="M61.8,19.28l-12.32-7.11c1.95-1.92,4.65-2.71,6.62-4.58c2.06-1.96,2.23-4.85-0.82-5.78
				c-2.58-0.78-5.4,0.3-7.41,1.86c-1.89,1.46-3.04,3.3-3.69,5.45l-5.78-3.34c-1.33-0.77-2.84-1.17-4.38-1.17
				c-1.54,0-3.05,0.41-4.38,1.17l-5.78,3.34c-0.65-2.15-1.8-3.98-3.69-5.45c-2.01-1.56-4.83-2.64-7.41-1.86
				C9.73,2.73,9.9,5.63,11.96,7.59c1.97,1.87,4.67,2.67,6.62,4.58L6.26,19.28c-2.7,1.56-4.38,4.47-4.38,7.58v27.01
				c0,3.12,1.68,6.02,4.38,7.58l13.47,7.77l-0.05-0.01c5.48,3.32,10.09,8.4,12.51,11.36c0.95,1.16,2.73,1.16,3.68,0
				c2.43-2.96,7.03-8.04,12.51-11.36l-0.05,0.01l13.47-7.77c2.7-1.56,4.38-4.47,4.38-7.58V26.87C66.18,23.75,64.5,20.84,61.8,19.28z
				 M24.14,40.22c3.11,1.84,6.61,2.77,10.11,2.77c3.38,0,6.76-0.86,9.78-2.58l17.33-9.85v4.71c-0.09,0.04-0.18,0.07-0.27,0.12
				L40.36,47.12c-3.87,2.2-8.65,2.15-12.47-0.12L6.69,34.4v-4.52L24.14,40.22z M6.69,39.99l18.74,11.15c2.7,1.6,5.75,2.41,8.79,2.41
				c2.94,0,5.87-0.75,8.5-2.24l18.64-10.54v5.25c-0.09,0.04-0.18,0.07-0.27,0.12L40.03,58.01c-3.66,2.08-8.19,2.03-11.82-0.12
				L6.69,45.37V39.99z M8.67,23.45l23.39-13.5c0.61-0.35,1.29-0.53,1.97-0.53c0.68,0,1.36,0.18,1.97,0.53l23.39,13.5
				c0.73,0.42,1.28,1.05,1.61,1.79L41.66,36.23c-4.67,2.65-10.45,2.6-15.07-0.14L7.5,24.76c-0.05-0.03-0.1-0.04-0.14-0.07
				C7.69,24.19,8.13,23.76,8.67,23.45z M59.4,57.3L41.28,67.75c-2.24,1.29-4.75,1.94-7.25,1.94s-5.01-0.65-7.25-1.94L8.67,57.3
				c-1.22-0.71-1.97-2.01-1.97-3.42v-2.94l19.07,11.1c2.6,1.54,5.53,2.31,8.46,2.31c2.82,0,5.64-0.72,8.17-2.15l18.98-10.7v2.38
				C61.37,55.29,60.62,56.59,59.4,57.3z"/>
		</g>
	</g>
</g>
<g id="Capa_2">
</g>
</svg>
