<?xml version="1.0" encoding="utf-8"?>
<!-- Generator: Adobe Illustrator 26.1.0, SVG Export Plug-In . SVG Version: 6.00 Build 0)  -->
<svg version="1.1" xmlns="http://www.w3.org/2000/svg" xmlns:xlink="http://www.w3.org/1999/xlink" x="0px" y="0px"
	 viewBox="0 0 269 99" style="enable-background:new 0 0 269 99;" xml:space="preserve">
<style type="text/css">
	.st0{fill:#752400;}
	.st1{fill:#EDA900;}
	.st2{fill:url(#);}
	.st3{fill:url(#SVGID_1_);}
	.st4{fill:#FCC51D;}
	.st5{fill:#FFDA32;}
	.st6{fill:none;stroke:#003743;stroke-width:17;stroke-miterlimit:10;}
	.st7{fill:#003743;}
	.st8{fill:none;stroke:#003743;stroke-width:20;stroke-linecap:round;stroke-linejoin:round;stroke-miterlimit:10;}
	.st9{fill:none;stroke:#003743;stroke-width:19;stroke-linecap:round;stroke-linejoin:round;stroke-miterlimit:10;}
	.st10{fill:none;stroke:#003743;stroke-width:21;stroke-linecap:round;stroke-linejoin:round;stroke-miterlimit:10;}
	.st11{fill:#002434;}
	.st12{fill:url(#SVGID_00000029730530849429663520000000245208305419406762_);}
	.st13{fill:#F20091;}
	.st14{fill:none;stroke:#E9992B;stroke-width:1.4883;stroke-miterlimit:10;}
	.st15{fill:#FFD700;}
	.st16{fill:none;stroke:#A2B3B6;stroke-miterlimit:10;}
	.st17{fill:#A2B3B6;}
	.st18{fill:#FF9300;}
	.st19{fill:#F2D291;}
	.st20{fill:#E1600E;}
	.st21{fill:#009DB5;}
	.st22{fill:#003643;}
	.st23{fill:none;stroke:#FCC51D;stroke-width:2.931;stroke-linecap:round;stroke-linejoin:round;stroke-miterlimit:10;}
	.st24{fill:#FFFFFF;}
	.st25{fill:#2E2C2F;}
	.st26{fill:#DE4335;}
	.st27{fill:#EFB004;}
	.st28{fill:#4280E8;}
	.st29{fill:#349C53;}
	.st30{fill:none;stroke:#F2D291;stroke-linecap:round;stroke-linejoin:round;stroke-miterlimit:10;stroke-dasharray:8,20;}
	.st31{fill:#FFC180;}
	.st32{fill:#E8902C;}
	.st33{fill:none;stroke:#F2D291;stroke-width:1.5;stroke-linecap:round;stroke-linejoin:round;stroke-miterlimit:10;}
	.st34{fill:#009C83;}
	.st35{fill:#E9992B;}
	.st36{fill:url(#SVGID_00000006685449606210815440000014938304559033412770_);}
	.st37{fill:#FFD000;}
	.st38{fill:none;stroke:#003743;stroke-width:4.3631;stroke-miterlimit:10;}
	.st39{fill:none;stroke:#003743;stroke-width:5.1331;stroke-linecap:round;stroke-linejoin:round;stroke-miterlimit:10;}
	.st40{fill:none;stroke:#003743;stroke-width:4.8764;stroke-linecap:round;stroke-linejoin:round;stroke-miterlimit:10;}
	.st41{fill:none;stroke:#003743;stroke-width:5.3897;stroke-linecap:round;stroke-linejoin:round;stroke-miterlimit:10;}
	.st42{fill:none;stroke:#003743;stroke-width:4.1065;stroke-linecap:round;stroke-linejoin:round;stroke-miterlimit:10;}
	.st43{fill:#FFBD1C;}
	.st44{fill:#E7982B;}
	.st45{fill:#FF16FF;}
	.st46{fill:none;stroke:#FF16FF;stroke-width:4;stroke-miterlimit:10;}
	.st47{display:none;}
	.st48{display:inline;}
	.st49{fill:#FF6DFF;}
	.st50{opacity:0.61;clip-path:url(#SVGID_00000073720791450222445790000010593936625521636006_);fill:#752400;}
	.st51{fill:#F0A81D;}
	.st52{fill:none;stroke:#752400;stroke-width:6.0764;stroke-linecap:round;stroke-linejoin:round;stroke-miterlimit:10;}
	.st53{fill:none;stroke:#D124FF;stroke-width:0.2509;stroke-miterlimit:10;}
	.st54{fill:none;stroke:#D124FF;stroke-width:0.1774;stroke-miterlimit:10;}
	.st55{fill:none;stroke:#D124FF;stroke-width:0.1255;stroke-miterlimit:10;}
	.st56{fill:none;stroke:#D124FF;stroke-width:0.433;stroke-miterlimit:10;}
	.st57{fill:none;stroke:#D124FF;stroke-width:0.1768;stroke-miterlimit:10;}
	.st58{filter:url(#Adobe_OpacityMaskFilter);}
	.st59{filter:url(#Adobe_OpacityMaskFilter_00000168833078226574505360000017521176653946555523_);}
	.st60{clip-path:url(#SVGID_00000039824349741660227510000005276287847225909151_);}
	.st61{clip-path:url(#SVGID_00000163774213803941318710000018127281234609633964_);}
	.st62{fill:none;stroke:#E9B32B;stroke-width:2.4797;stroke-miterlimit:10;}
	.st63{clip-path:url(#SVGID_00000079486939006176979840000001327828986167319743_);}
	.st64{fill:none;stroke:#003947;stroke-width:2.4797;stroke-miterlimit:10;}
	.st65{opacity:0.86;fill:#FFFFFF;}
	.st66{fill:#FFAF2C;stroke:#003643;stroke-width:4.2721;stroke-linecap:round;stroke-linejoin:round;stroke-miterlimit:10;}
	.st67{fill:none;stroke:#003643;stroke-width:8.307;stroke-miterlimit:10;}
	.st68{fill:none;stroke:#003643;stroke-width:7.1202;stroke-linecap:round;stroke-linejoin:round;stroke-miterlimit:10;}
	.st69{fill:none;stroke:#003643;stroke-width:3.5601;stroke-linecap:round;stroke-linejoin:round;stroke-miterlimit:10;}
	.st70{fill:none;stroke:#003643;stroke-width:6.4082;stroke-linecap:round;stroke-linejoin:round;stroke-miterlimit:10;}
	.st71{fill:#FFAF2C;stroke:#003643;stroke-width:3.7927;stroke-linecap:round;stroke-linejoin:round;stroke-miterlimit:10;}
	.st72{fill:none;stroke:#003643;stroke-width:7.3747;stroke-miterlimit:10;}
	.st73{fill:none;stroke:#003643;stroke-width:6.3212;stroke-linecap:round;stroke-linejoin:round;stroke-miterlimit:10;}
	.st74{fill:none;stroke:#003643;stroke-width:3.1606;stroke-linecap:round;stroke-linejoin:round;stroke-miterlimit:10;}
	.st75{fill:none;stroke:#003643;stroke-width:5.6891;stroke-linecap:round;stroke-linejoin:round;stroke-miterlimit:10;}
	.st76{clip-path:url(#SVGID_00000009558678741925898920000007645071002504131763_);}
	.st77{fill:none;stroke:#5C5EC2;stroke-width:5.9855;stroke-miterlimit:10;}
	.st78{fill:none;stroke:#5C5EC2;stroke-width:4.7884;stroke-miterlimit:10;}
	.st79{fill:#5C5EC2;}
	.st80{clip-path:url(#SVGID_00000129169370952397690130000011384645004562327449_);}
	.st81{fill:none;stroke:#5C5EC2;stroke-width:6.6165;stroke-miterlimit:10;}
	.st82{fill:none;stroke:#5C5EC2;stroke-width:5.2932;stroke-miterlimit:10;}
	.st83{fill:#FFD194;stroke:#003643;stroke-width:6.61;stroke-miterlimit:10;}
	.st84{fill:#FFFFFF;stroke:#003643;stroke-width:3.9227;stroke-miterlimit:10;}
	.st85{fill:#E4BA87;}
	.st86{fill:#A45727;}
	.st87{fill:#E7EAE8;}
	.st88{opacity:0.51;fill:#FFFFFF;}
	.st89{fill:#D4CFCC;}
	.st90{fill:none;stroke:#003643;stroke-width:9.9758;stroke-linecap:round;stroke-linejoin:round;stroke-miterlimit:10;}
	.st91{fill:#FFAF2C;}
	.st92{fill:#FFD194;stroke:#003643;stroke-width:7.8307;stroke-miterlimit:10;}
	.st93{fill:#E9ECED;}
	.st94{fill:none;stroke:#FFFFFF;stroke-width:2.9927;stroke-linecap:round;stroke-linejoin:round;stroke-miterlimit:10;}
	.st95{fill:none;stroke:#E8902C;stroke-width:3.9903;stroke-linecap:round;stroke-linejoin:round;stroke-miterlimit:10;}
	.st96{filter:url(#Adobe_OpacityMaskFilter_00000150065179060622476440000016386422549989462931_);}
	.st97{clip-path:url(#SVGID_00000028308543300398690140000002983570772545929859_);}
	.st98{filter:url(#Adobe_OpacityMaskFilter_00000141439082237315981310000017223294754543445387_);}
	.st99{clip-path:url(#SVGID_00000139993276148164682210000003354963796861343679_);enable-background:new    ;}
	.st100{clip-path:url(#SVGID_00000103972778688494492130000005360198617126496152_);enable-background:new    ;}
	.st101{clip-path:url(#SVGID_00000130627826900685813190000018047988383314357632_);enable-background:new    ;}
	.st102{clip-path:url(#SVGID_00000092421713660429996610000015209133516198447256_);}
	.st103{clip-path:url(#SVGID_00000123439453023051914490000000817213061410914216_);}
	.st104{clip-path:url(#SVGID_00000014616796683116748620000003642140373259412159_);enable-background:new    ;}
	.st105{fill:none;stroke:#752400;stroke-width:5.2755;stroke-linecap:round;stroke-linejoin:round;stroke-miterlimit:10;}
	.st106{fill:none;stroke:#C4BFCC;stroke-width:0.5;stroke-miterlimit:10;}
	.st107{fill:none;stroke:#752400;stroke-miterlimit:10;}
	.st108{fill:none;stroke:#FFFFFF;stroke-width:2;stroke-miterlimit:10;}
	.st109{opacity:0.67;}
</style>
<g id="Capa_1">
	<g>
		<g>
			<path class="st15" d="M41.73,96.79c-1.83,0-3.55-0.81-4.7-2.23c-2.37-2.9-7.2-8.27-12.84-11.69l0.01-0.01L9.53,74.4
				c-4.03-2.33-6.54-6.67-6.54-11.33V33.45c0-4.66,2.51-9,6.54-11.33l8.69-5.02c-1.03-0.62-2.11-1.34-3.1-2.28
				c-2.21-2.09-3.17-4.85-2.57-7.36c0.54-2.29,2.31-4.05,4.85-4.82c0.95-0.29,1.96-0.44,2.98-0.44c2.8,0,5.75,1.09,8.28,3.06
				c1.39,1.08,2.55,2.35,3.47,3.81l3.05-1.76c1.98-1.15,4.25-1.75,6.54-1.75c2.29,0,4.55,0.61,6.54,1.75l3.05,1.76
				c0.92-1.46,2.08-2.73,3.47-3.81c2.54-1.97,5.48-3.06,8.28-3.06c1.03,0,2.03,0.15,2.98,0.44c2.54,0.77,4.31,2.53,4.85,4.82
				c0.6,2.52-0.37,5.27-2.57,7.36c-0.99,0.94-2.07,1.66-3.1,2.28l8.69,5.02c4.03,2.33,6.54,6.67,6.54,11.33v29.62
				c0,4.66-2.51,9-6.54,11.33l-14.66,8.46l0.01,0.01c-5.64,3.42-10.47,8.79-12.84,11.69C45.27,95.98,43.56,96.79,41.73,96.79z"/>
		</g>
		<g>
			<g>
				<path class="st15" d="M114.31,31.44h-9.74l-10.6,33.57h8.45l1.09-3.83l0.01-0.03l2.15-8.99h-0.01l0.2-0.79l3.43-13.67
					l3.63,14.46h-5.18l-1.59,6.64h8.25l1.76,6.21h8.88L114.31,31.44z"/>
			</g>
			<g>
				<path class="st15" d="M155.7,37.65c-0.48-1.53-1.28-2.77-2.39-3.72c-1.11-0.96-2.66-1.66-4.63-2.12
					c-1.98-0.47-4.46-0.69-7.46-0.69c-0.6,0-1.5,0.01-2.69,0.03c-1.2,0.01-2.66,0.05-4.37,0.11c-1.73,0.07-3.72,0.15-6.02,0.24
					v33.52h8.12V37.7c0.76-0.03,1.41-0.07,1.93-0.1c0.53-0.03,0.99-0.06,1.39-0.07c0.4-0.02,0.77-0.03,1.12-0.03h1.15
					c1.28,0,2.33,0.1,3.15,0.31c0.82,0.2,1.48,0.53,1.94,0.97c0.46,0.45,0.79,1.02,0.98,1.7c0.18,0.68,0.29,1.52,0.29,2.5
					c0,1.18-0.1,2.18-0.29,3.01c-0.19,0.82-0.56,1.49-1.08,2.01c-0.53,0.5-1.28,0.88-2.25,1.09c-0.97,0.23-2.23,0.34-3.79,0.34
					h-1.12c-0.34,0-0.67-0.01-1.01-0.03c-0.11-0.01-0.22-0.01-0.34-0.02v6.36c0.37,0.03,0.69,0.03,0.98,0.05
					c0.36,0.02,0.7,0.03,1.06,0.03h2.95c2.42,0,4.46-0.25,6.11-0.74c1.66-0.49,3-1.25,4.04-2.27c1.03-1.02,1.79-2.32,2.25-3.92
					c0.46-1.59,0.69-3.5,0.69-5.73C156.42,41.03,156.18,39.18,155.7,37.65z"/>
			</g>
			<g>
				<path class="st15" d="M161.24,65.01V31.59h8.07v33.43H161.24z"/>
			</g>
			<g>
				<path class="st15" d="M200.3,32.78l-1.53,6.21c-0.64-0.22-1.37-0.43-2.2-0.62c-0.83-0.19-1.69-0.35-2.58-0.48
					c-0.89-0.13-1.78-0.22-2.67-0.29c-0.89-0.06-1.75-0.1-2.58-0.1c-1.88,0-3.31,0.26-4.3,0.76c-0.99,0.51-1.48,1.31-1.48,2.39
					c0,0.57,0.16,1.07,0.48,1.5c0.32,0.43,0.83,0.82,1.53,1.17c0.7,0.35,1.61,0.7,2.72,1.05c1.11,0.35,2.45,0.73,4.01,1.15
					c1.69,0.41,3.16,0.92,4.42,1.5c1.26,0.59,2.31,1.27,3.15,2.05c0.84,0.78,1.48,1.69,1.91,2.72c0.43,1.03,0.65,2.24,0.65,3.61
					c0,2.17-0.57,4-1.72,5.49c-1.15,1.5-2.83,2.63-5.06,3.41c-2.23,0.78-4.97,1.17-8.21,1.17c-1.08,0-2.2-0.05-3.34-0.14
					c-1.15-0.1-2.3-0.23-3.46-0.41c-1.16-0.17-2.28-0.4-3.37-0.67c-1.08-0.27-2.1-0.58-3.06-0.93l1.53-6.16
					c0.95,0.32,1.94,0.6,2.96,0.86c1.02,0.25,2.05,0.47,3.1,0.64c1.05,0.18,2.09,0.31,3.13,0.41c1.03,0.1,2.01,0.14,2.94,0.14
					c1.43,0,2.6-0.12,3.51-0.36c0.91-0.24,1.58-0.6,2.01-1.07c0.43-0.48,0.64-1.07,0.64-1.77c0-0.6-0.21-1.11-0.64-1.53
					c-0.43-0.41-1.07-0.8-1.93-1.17c-0.86-0.37-1.93-0.74-3.22-1.12c-1.29-0.38-2.78-0.83-4.46-1.34c-1.43-0.48-2.68-1.02-3.75-1.62
					c-1.07-0.6-1.97-1.3-2.7-2.08c-0.73-0.78-1.28-1.68-1.65-2.7c-0.37-1.02-0.55-2.16-0.55-3.44c0-1.43,0.28-2.75,0.84-3.96
					c0.56-1.21,1.4-2.26,2.53-3.15c1.13-0.89,2.6-1.58,4.42-2.08c1.81-0.49,3.96-0.74,6.45-0.74c1.46,0,2.92,0.08,4.37,0.24
					c1.45,0.16,2.79,0.37,4.03,0.62C198.39,32.22,199.44,32.49,200.3,32.78z"/>
			</g>
			<g>
				<path class="st15" d="M214.57,58.18V38.47h15.91v-6.88h-23.97v33.43h24.83v-6.83H214.57z M229.28,50.75v-5.46h-12.64v5.46
					H229.28z"/>
			</g>
			<g>
				<path class="st15" d="M265.95,57.61c-0.1,0-0.22,0.01-0.38,0.03c-2.26,0.25-4.41-1.73-6.03-3.32c-0.76-0.74-1.54-1.61-2.37-2.63
					c1.43-0.48,2.68-1.15,3.75-2.01c1.07-0.86,1.88-1.96,2.46-3.32c0.57-1.35,0.86-2.97,0.86-4.84c0-1.85-0.27-3.43-0.81-4.75
					c-0.55-1.33-1.41-2.4-2.6-3.23c-1.19-0.82-2.72-1.44-4.58-1.83c-1.86-0.4-4.12-0.6-6.75-0.6c-1.12,0-2.34,0.02-3.66,0.04
					c-1.32,0.03-2.77,0.09-4.34,0.15c-1.58,0.06-3.31,0.16-5.18,0.29v33.43h8.12V37.61c0.63-0.03,1.17-0.07,1.62-0.1
					c0.44-0.03,0.85-0.06,1.22-0.07c0.36-0.02,0.73-0.03,1.1-0.03h1.31c1.59,0,2.84,0.17,3.75,0.52c0.9,0.36,1.55,0.9,1.93,1.65
					c0.38,0.75,0.57,1.75,0.57,2.99c0,1.02-0.13,1.87-0.4,2.55c-0.28,0.69-0.67,1.24-1.2,1.68c-0.52,0.43-1.2,0.74-2.03,0.93
					c-0.82,0.19-1.8,0.29-2.91,0.29h-1.36c-0.4,0-0.79-0.01-1.17-0.03c-0.12-0.01-0.24-0.01-0.36-0.02v5.96h1.59
					c0.33,0,0.59-0.02,0.78-0.05c1.15,1.69,2.26,3.17,3.33,4.45c1.06,1.28,2.1,2.36,3.13,3.27c1.02,0.9,2.01,1.64,2.99,2.21
					c2.49,1.48,5.06,1.94,7.71,1.53L265.95,57.61z"/>
			</g>
		</g>
		<g>
			<path class="st15" d="M39.56,14.89L13.91,29.7c-1.34,0.77-2.16,2.2-2.16,3.75v29.62c0,1.55,0.83,2.98,2.16,3.75L33.78,78.3
				c4.92,2.84,10.98,2.84,15.9,0l19.87-11.47c1.34-0.77,2.16-2.2,2.16-3.75V33.45c0-1.55-0.83-2.98-2.16-3.75L43.89,14.89
				C42.55,14.12,40.9,14.12,39.56,14.89z"/>
			<path class="st51" d="M38.73,81.04c5-0.17,5.98-7.1,1.8-8.14c1.39-0.92-0.33-2.19,0.85-2.79c3.89-1.98,3.26-7.14,0-8.08
				c0.92,0.39-0.25-3.65,0.73-3.84c2.79-0.52,3.08-6.69-0.73-7.79c1.76,0.41,3.27-2.25,4.99-2.81c1.72-0.57,3.32-1.44,4.9-2.31
				c6.77-3.7,13.54-7.41,20.3-11.11l0.66,31.67l-30.5,17.66L38.73,81.04z"/>
			<path class="st0" d="M41.73,14.31c0.75,0,1.49,0.19,2.16,0.58L69.55,29.7c1.34,0.77,2.16,2.2,2.16,3.75v29.62
				c0,1.55-0.83,2.98-2.16,3.75L49.68,78.3c-2.46,1.42-5.21,2.13-7.95,2.13s-5.49-0.71-7.95-2.13L13.91,66.82
				c-1.34-0.77-2.16-2.2-2.16-3.75V33.45c0-1.55,0.83-2.98,2.16-3.75l25.65-14.81C40.23,14.5,40.98,14.31,41.73,14.31 M41.73,9.04
				c-1.68,0-3.34,0.44-4.8,1.29L11.27,25.13c-2.96,1.71-4.8,4.9-4.8,8.32v29.62c0,3.42,1.84,6.61,4.8,8.32l19.87,11.47
				c3.21,1.86,6.88,2.84,10.59,2.84c3.71,0,7.37-0.98,10.59-2.84l19.87-11.47c2.96-1.71,4.8-4.9,4.8-8.32V33.45
				c0-3.42-1.84-6.61-4.8-8.32L46.53,10.32C45.07,9.48,43.41,9.04,41.73,9.04L41.73,9.04z"/>
			<path class="st105" d="M10.03,43.76l23.62,14.05c5.02,2.98,11.25,3.04,16.33,0.16L72.71,45.1"/>
			<path class="st105" d="M11.28,33.41l20.95,12.42c5.9,3.5,13.21,3.57,19.17,0.18l21.52-12.23"/>
			<path class="st105" d="M9.33,55.39l24.68,14.36c4.8,2.84,10.75,2.9,15.6,0.15l23.11-13.03"/>
			<path class="st0" d="M41.73,84.5L25.98,79.9c6.01,3.64,11.07,9.21,13.73,12.46c1.04,1.27,2.99,1.27,4.04,0
				c2.66-3.25,7.71-8.82,13.73-12.46L41.73,84.5z"/>
			<g>
				<path class="st0" d="M26.54,8.01c-2.21-1.71-5.3-2.9-8.13-2.04c-3.34,1.01-3.16,4.19-0.9,6.34c2.23,2.12,5.33,2.97,7.48,5.23
					c1.05,1.1,2.45,2.92,4.21,2.52c1.73-0.39,2.1-2.61,1.85-4.08C30.51,12.75,29.17,10.05,26.54,8.01z"/>
				<path class="st0" d="M56.91,8.01c2.21-1.71,5.3-2.9,8.13-2.04c3.34,1.01,3.16,4.19,0.9,6.34c-2.23,2.12-5.33,2.97-7.48,5.23
					c-1.05,1.1-2.45,2.92-4.21,2.52c-1.73-0.39-2.1-2.61-1.85-4.08C52.94,12.75,54.28,10.05,56.91,8.01z"/>
			</g>
		</g>
	</g>
</g>
<g id="Capa_2">
</g>
</svg>
